<mxfile host="app.diagrams.net" modified="2023-03-25T09:25:59.961Z" agent="5.0 (Macintosh; Intel Mac OS X 10_15_7) AppleWebKit/537.36 (KHTML, like Gecko) Chrome/111.0.0.0 Safari/537.36" etag="65RREZWgyJAvsfVtGoQu" version="21.0.6" type="github" pages="4">
  <diagram id="BYzD3MFwf9BdRqlY15Yz" name="UC 1 - Food Resource Declared">
    <mxGraphModel dx="724" dy="472" grid="1" gridSize="10" guides="1" tooltips="1" connect="1" arrows="1" fold="1" page="1" pageScale="1" pageWidth="850" pageHeight="1100" math="0" shadow="0">
      <root>
        <mxCell id="0" />
        <mxCell id="1" parent="0" />
        <mxCell id="YwiwoOE4lkUkywlC8R9_-1" value="Verbal definition" style="text;strokeColor=none;fillColor=none;html=1;fontSize=24;fontStyle=1;verticalAlign=middle;align=center;" vertex="1" parent="1">
          <mxGeometry x="70" y="10" width="100" height="40" as="geometry" />
        </mxCell>
        <mxCell id="YwiwoOE4lkUkywlC8R9_-2" value="&lt;div&gt;A volunteer wants to give away some clothes and food.&lt;/div&gt;&lt;ul&gt;&lt;li&gt;100 kgs of rice&lt;/li&gt;&lt;li&gt;200 blankets - waterproof&lt;/li&gt;&lt;li&gt;100 sports shoes&lt;/li&gt;&lt;li&gt;100 boots - waterproof&lt;/li&gt;&lt;/ul&gt;" style="text;strokeColor=none;fillColor=none;html=1;whiteSpace=wrap;verticalAlign=middle;overflow=hidden;" vertex="1" parent="1">
          <mxGeometry x="42" y="40" width="270" height="110" as="geometry" />
        </mxCell>
        <mxCell id="YwiwoOE4lkUkywlC8R9_-3" value="&lt;div&gt;Situation:&lt;/div&gt;&lt;ul&gt;&lt;li&gt;Volunteer has internet connection&lt;/li&gt;&lt;li&gt;Has our app&amp;nbsp;&lt;/li&gt;&lt;li&gt;Is a self registered (unverified) user&lt;/li&gt;&lt;li&gt;These information are provided by the v.&lt;/li&gt;&lt;ul&gt;&lt;li&gt;Phone number&lt;/li&gt;&lt;li&gt;Address&lt;/li&gt;&lt;li&gt;Address of the goods (al same place)&lt;/li&gt;&lt;li&gt;ASKED: Take away these before certain date.&lt;/li&gt;&lt;/ul&gt;&lt;/ul&gt;" style="text;strokeColor=none;fillColor=none;html=1;whiteSpace=wrap;verticalAlign=middle;overflow=hidden;" vertex="1" parent="1">
          <mxGeometry x="30" y="140" width="270" height="180" as="geometry" />
        </mxCell>
        <mxCell id="YwiwoOE4lkUkywlC8R9_-4" value="&lt;div&gt;Situation2:&lt;/div&gt;&lt;ul&gt;&lt;li&gt;Volunteer has internet connection&lt;/li&gt;&lt;li&gt;Has our app&amp;nbsp;&lt;/li&gt;&lt;li&gt;Is a verified user&lt;/li&gt;&lt;li&gt;These information are provided by the v.&lt;/li&gt;&lt;ul&gt;&lt;li&gt;Phone number&lt;/li&gt;&lt;li&gt;Address&lt;/li&gt;&lt;li&gt;Address of the goods (al same place)&lt;/li&gt;&lt;li&gt;ASKED: Take away these before certain date.&lt;/li&gt;&lt;/ul&gt;&lt;/ul&gt;" style="text;strokeColor=none;fillColor=none;html=1;whiteSpace=wrap;verticalAlign=middle;overflow=hidden;" vertex="1" parent="1">
          <mxGeometry x="312" y="140" width="270" height="180" as="geometry" />
        </mxCell>
        <mxCell id="YwiwoOE4lkUkywlC8R9_-5" value="&lt;div&gt;Situation3:&lt;/div&gt;&lt;ul&gt;&lt;li&gt;Volunteer has internet connection&lt;/li&gt;&lt;li&gt;Has our app&amp;nbsp;&lt;/li&gt;&lt;li&gt;Is a verified user&lt;/li&gt;&lt;li&gt;These information are provided by the v.&lt;/li&gt;&lt;ul&gt;&lt;li&gt;Phone number&lt;/li&gt;&lt;li&gt;Address&lt;/li&gt;&lt;li&gt;Address of the goods (al same place)&lt;/li&gt;&lt;li&gt;ASKED: Take away these before certain date.&lt;/li&gt;&lt;/ul&gt;&lt;li&gt;Boots, shoes and blankets are packed together.&amp;nbsp;&lt;/li&gt;&lt;/ul&gt;" style="text;strokeColor=none;fillColor=none;html=1;whiteSpace=wrap;verticalAlign=middle;overflow=hidden;" vertex="1" parent="1">
          <mxGeometry x="560" y="140" width="270" height="220" as="geometry" />
        </mxCell>
      </root>
    </mxGraphModel>
  </diagram>
  <diagram id="zCCO1cx8Dha1Tv80fUOR" name="UC 2 - Vehicle Resource Declared">
    <mxGraphModel dx="724" dy="472" grid="1" gridSize="10" guides="1" tooltips="1" connect="1" arrows="1" fold="1" page="1" pageScale="1" pageWidth="850" pageHeight="1100" math="0" shadow="0">
      <root>
        <mxCell id="0" />
        <mxCell id="1" parent="0" />
      </root>
    </mxGraphModel>
  </diagram>
  <diagram id="jKrg6bk0fOhfqyU5LiU9" name="UC 3 - Food Demand">
    <mxGraphModel dx="724" dy="472" grid="1" gridSize="10" guides="1" tooltips="1" connect="1" arrows="1" fold="1" page="1" pageScale="1" pageWidth="850" pageHeight="1100" math="0" shadow="0">
      <root>
        <mxCell id="0" />
        <mxCell id="1" parent="0" />
      </root>
    </mxGraphModel>
  </diagram>
  <diagram id="pGB40jZsvaYnVns1NooZ" name="UC 4 - Rescue Team prepared">
    <mxGraphModel dx="724" dy="472" grid="1" gridSize="10" guides="1" tooltips="1" connect="1" arrows="1" fold="1" page="1" pageScale="1" pageWidth="850" pageHeight="1100" math="0" shadow="0">
      <root>
        <mxCell id="0" />
        <mxCell id="1" parent="0" />
      </root>
    </mxGraphModel>
  </diagram>
</mxfile>
